<svg width="70" height="70" viewBox="0 0 70 70" fill="none" xmlns="http://www.w3.org/2000/svg">
<circle cx="35" cy="35" r="35" fill="#E0E0E0"/>
<path fill-rule="evenodd" clip-rule="evenodd" d="M36.5833 28V19.25H25.5C24.6256 19.25 23.9167 20.0335 23.9167 21V49C23.9167 49.9665 24.6256 50.75 25.5 50.75H44.5C45.3745 50.75 46.0833 49.9665 46.0833 49V29.75H38.1667C37.2922 29.75 36.5833 28.9665 36.5833 28ZM39.75 26.25H43.8442L39.75 21.7249V26.25ZM48.7863 26.7626C48.7988 26.7764 48.8111 26.7905 48.8231 26.8047C49.0917 27.1222 49.2441 27.5392 49.2498 27.9746L49.25 28V49C49.25 51.8995 47.1234 54.25 44.5 54.25H25.5C22.8766 54.25 20.75 51.8995 20.75 49V21C20.75 18.1005 22.8766 15.75 25.5 15.75H38.1667C38.6039 15.75 38.9997 15.9459 39.2863 16.2626L48.7863 26.7626ZM28.6667 35H41.3333C42.2078 35 42.9167 35.7835 42.9167 36.75C42.9167 37.7165 42.2078 38.5 41.3333 38.5H28.6667C27.7922 38.5 27.0833 37.7165 27.0833 36.75C27.0833 35.7835 27.7922 35 28.6667 35ZM41.3333 42H28.6667C27.7922 42 27.0833 42.7835 27.0833 43.75C27.0833 44.7165 27.7922 45.5 28.6667 45.5H41.3333C42.2078 45.5 42.9167 44.7165 42.9167 43.75C42.9167 42.7835 42.2078 42 41.3333 42ZM28.6667 28H31.8333C32.7078 28 33.4167 28.7835 33.4167 29.75C33.4167 30.7165 32.7078 31.5 31.8333 31.5H28.6667C27.7922 31.5 27.0833 30.7165 27.0833 29.75C27.0833 28.7835 27.7922 28 28.6667 28Z" fill="black"/>
<mask id="mask0" mask-type="alpha" maskUnits="userSpaceOnUse" x="20" y="15" width="30" height="40">
<path fill-rule="evenodd" clip-rule="evenodd" d="M36.5833 28V19.25H25.5C24.6256 19.25 23.9167 20.0335 23.9167 21V49C23.9167 49.9665 24.6256 50.75 25.5 50.75H44.5C45.3745 50.75 46.0833 49.9665 46.0833 49V29.75H38.1667C37.2922 29.75 36.5833 28.9665 36.5833 28ZM39.75 26.25H43.8442L39.75 21.7249V26.25ZM48.7863 26.7626C48.7988 26.7764 48.8111 26.7905 48.8231 26.8047C49.0917 27.1222 49.2441 27.5392 49.2498 27.9746L49.25 28V49C49.25 51.8995 47.1234 54.25 44.5 54.25H25.5C22.8766 54.25 20.75 51.8995 20.75 49V21C20.75 18.1005 22.8766 15.75 25.5 15.75H38.1667C38.6039 15.75 38.9997 15.9459 39.2863 16.2626L48.7863 26.7626ZM28.6667 35H41.3333C42.2078 35 42.9167 35.7835 42.9167 36.75C42.9167 37.7165 42.2078 38.5 41.3333 38.5H28.6667C27.7922 38.5 27.0833 37.7165 27.0833 36.75C27.0833 35.7835 27.7922 35 28.6667 35ZM41.3333 42H28.6667C27.7922 42 27.0833 42.7835 27.0833 43.75C27.0833 44.7165 27.7922 45.5 28.6667 45.5H41.3333C42.2078 45.5 42.9167 44.7165 42.9167 43.75C42.9167 42.7835 42.2078 42 41.3333 42ZM28.6667 28H31.8333C32.7078 28 33.4167 28.7835 33.4167 29.75C33.4167 30.7165 32.7078 31.5 31.8333 31.5H28.6667C27.7922 31.5 27.0833 30.7165 27.0833 29.75C27.0833 28.7835 27.7922 28 28.6667 28Z" fill="white"/>
</mask>
<g mask="url(#mask0)">
<rect x="16" y="14" width="38" height="42" fill="#4F4F4F"/>
</g>
</svg>
