<svg width="74" height="75" viewBox="0 0 74 75" fill="none" xmlns="http://www.w3.org/2000/svg">
<ellipse cx="36.5351" cy="37.5" rx="36.5135" ry="37.5" fill="#E0E0E0"/>
<path fill-rule="evenodd" clip-rule="evenodd" d="M31.8405 36.9643C27.5193 36.9643 24.0162 33.6664 24.0162 29.5982C24.0162 25.53 27.5193 22.2321 31.8405 22.2321C36.1618 22.2321 39.6649 25.53 39.6649 29.5982C39.6649 33.6664 36.1618 36.9643 31.8405 36.9643ZM45.9243 50.2232V47.2768C45.9243 43.2086 42.4213 39.9107 38.1 39.9107H25.5811C21.2598 39.9107 17.7568 43.2086 17.7568 47.2768V50.2232C17.7568 51.0369 18.4574 51.6964 19.3216 51.6964C20.1859 51.6964 20.8865 51.0369 20.8865 50.2232V47.2768C20.8865 44.8359 22.9883 42.8571 25.5811 42.8571H38.1C40.6928 42.8571 42.7946 44.8359 42.7946 47.2768V50.2232C42.7946 51.0369 43.4952 51.6964 44.3595 51.6964C45.2237 51.6964 45.9243 51.0369 45.9243 50.2232ZM55.3135 47.2768V50.2232C55.3135 51.0369 54.6129 51.6964 53.7486 51.6964C52.8844 51.6964 52.1838 51.0369 52.1838 50.2232V47.2779C52.1822 45.2638 50.7343 43.5054 48.6628 43.0019C47.826 42.7985 47.3228 41.9949 47.5389 41.2071C47.7549 40.4194 48.6085 39.9456 49.4453 40.149C52.8978 40.9882 55.3109 43.9188 55.3135 47.2768ZM42.4064 25.3241C44.4837 25.8248 45.9366 27.5869 45.9366 29.6056C45.9366 31.6243 44.4837 33.3864 42.4064 33.8871C41.5692 34.0889 41.0643 34.8915 41.2786 35.6797C41.493 36.4679 42.3455 36.9433 43.1827 36.7415C46.6448 35.9069 49.0663 32.9701 49.0663 29.6056C49.0663 26.2411 46.6448 23.3042 43.1827 22.4697C42.3455 22.2679 41.493 22.7433 41.2786 23.5315C41.0643 24.3197 41.5692 25.1222 42.4064 25.3241ZM36.5351 29.5982C36.5351 32.0391 34.4333 34.0179 31.8405 34.0179C29.2478 34.0179 27.1459 32.0391 27.1459 29.5982C27.1459 27.1573 29.2478 25.1786 31.8405 25.1786C34.4333 25.1786 36.5351 27.1573 36.5351 29.5982Z" fill="black"/>
<mask id="mask0" mask-type="alpha" maskUnits="userSpaceOnUse" x="17" y="22" width="39" height="30">
<path fill-rule="evenodd" clip-rule="evenodd" d="M31.8405 36.9643C27.5193 36.9643 24.0162 33.6664 24.0162 29.5982C24.0162 25.53 27.5193 22.2321 31.8405 22.2321C36.1618 22.2321 39.6649 25.53 39.6649 29.5982C39.6649 33.6664 36.1618 36.9643 31.8405 36.9643ZM45.9243 50.2232V47.2768C45.9243 43.2086 42.4213 39.9107 38.1 39.9107H25.5811C21.2598 39.9107 17.7568 43.2086 17.7568 47.2768V50.2232C17.7568 51.0369 18.4574 51.6964 19.3216 51.6964C20.1859 51.6964 20.8865 51.0369 20.8865 50.2232V47.2768C20.8865 44.8359 22.9883 42.8571 25.5811 42.8571H38.1C40.6928 42.8571 42.7946 44.8359 42.7946 47.2768V50.2232C42.7946 51.0369 43.4952 51.6964 44.3595 51.6964C45.2237 51.6964 45.9243 51.0369 45.9243 50.2232ZM55.3135 47.2768V50.2232C55.3135 51.0369 54.6129 51.6964 53.7486 51.6964C52.8844 51.6964 52.1838 51.0369 52.1838 50.2232V47.2779C52.1822 45.2638 50.7343 43.5054 48.6628 43.0019C47.826 42.7985 47.3228 41.9949 47.5389 41.2071C47.7549 40.4194 48.6085 39.9456 49.4453 40.149C52.8978 40.9882 55.3109 43.9188 55.3135 47.2768ZM42.4064 25.3241C44.4837 25.8248 45.9366 27.5869 45.9366 29.6056C45.9366 31.6243 44.4837 33.3864 42.4064 33.8871C41.5692 34.0889 41.0643 34.8915 41.2786 35.6797C41.493 36.4679 42.3455 36.9433 43.1827 36.7415C46.6448 35.9069 49.0663 32.9701 49.0663 29.6056C49.0663 26.2411 46.6448 23.3042 43.1827 22.4697C42.3455 22.2679 41.493 22.7433 41.2786 23.5315C41.0643 24.3197 41.5692 25.1222 42.4064 25.3241ZM36.5351 29.5982C36.5351 32.0391 34.4333 34.0179 31.8405 34.0179C29.2478 34.0179 27.1459 32.0391 27.1459 29.5982C27.1459 27.1573 29.2478 25.1786 31.8405 25.1786C34.4333 25.1786 36.5351 27.1573 36.5351 29.5982Z" fill="white"/>
</mask>
<g mask="url(#mask0)">
<rect x="17.7568" y="19.2857" width="37.5568" height="35.3571" fill="#4F4F4F"/>
</g>
</svg>
