<svg width="70" height="70" viewBox="0 0 70 70" fill="none" xmlns="http://www.w3.org/2000/svg">
<circle cx="35" cy="35" r="35" fill="#E0E0E0"/>
<path fill-rule="evenodd" clip-rule="evenodd" d="M30.5 34.5C26.3579 34.5 23 31.422 23 27.625C23 23.828 26.3579 20.75 30.5 20.75C34.6421 20.75 38 23.828 38 27.625C38 31.422 34.6421 34.5 30.5 34.5ZM44 46.875V44.125C44 40.328 40.6421 37.25 36.5 37.25H24.5C20.3579 37.25 17 40.328 17 44.125V46.875C17 47.6344 17.6716 48.25 18.5 48.25C19.3284 48.25 20 47.6344 20 46.875V44.125C20 41.8468 22.0147 40 24.5 40H36.5C38.9853 40 41 41.8468 41 44.125V46.875C41 47.6344 41.6716 48.25 42.5 48.25C43.3284 48.25 44 47.6344 44 46.875ZM53 44.125V46.875C53 47.6344 52.3284 48.25 51.5 48.25C50.6716 48.25 50 47.6344 50 46.875V44.126C49.9985 42.2462 48.6106 40.605 46.625 40.1351C45.8229 39.9452 45.3405 39.1953 45.5476 38.46C45.7547 37.7247 46.5729 37.2826 47.375 37.4724C50.6844 38.2557 52.9975 40.9909 53 44.125ZM40.6279 23.6358C42.6191 24.1031 44.0118 25.7478 44.0118 27.6319C44.0118 29.516 42.6191 31.1606 40.6279 31.628C39.8254 31.8163 39.3414 32.5654 39.5469 33.3011C39.7524 34.0367 40.5695 34.4804 41.3721 34.292C44.6906 33.5131 47.0118 30.772 47.0118 27.6319C47.0118 24.4917 44.6906 21.7506 41.3721 20.9717C40.5695 20.7834 39.7524 21.227 39.5469 21.9627C39.3414 22.6984 39.8254 23.4474 40.6279 23.6358ZM35 27.625C35 29.9032 32.9853 31.75 30.5 31.75C28.0147 31.75 26 29.9032 26 27.625C26 25.3468 28.0147 23.5 30.5 23.5C32.9853 23.5 35 25.3468 35 27.625Z" fill="black"/>
<mask id="mask0" mask-type="alpha" maskUnits="userSpaceOnUse" x="17" y="20" width="36" height="29">
<path fill-rule="evenodd" clip-rule="evenodd" d="M30.5 34.5C26.3579 34.5 23 31.422 23 27.625C23 23.828 26.3579 20.75 30.5 20.75C34.6421 20.75 38 23.828 38 27.625C38 31.422 34.6421 34.5 30.5 34.5ZM44 46.875V44.125C44 40.328 40.6421 37.25 36.5 37.25H24.5C20.3579 37.25 17 40.328 17 44.125V46.875C17 47.6344 17.6716 48.25 18.5 48.25C19.3284 48.25 20 47.6344 20 46.875V44.125C20 41.8468 22.0147 40 24.5 40H36.5C38.9853 40 41 41.8468 41 44.125V46.875C41 47.6344 41.6716 48.25 42.5 48.25C43.3284 48.25 44 47.6344 44 46.875ZM53 44.125V46.875C53 47.6344 52.3284 48.25 51.5 48.25C50.6716 48.25 50 47.6344 50 46.875V44.126C49.9985 42.2462 48.6106 40.605 46.625 40.1351C45.8229 39.9452 45.3405 39.1953 45.5476 38.46C45.7547 37.7247 46.5729 37.2826 47.375 37.4724C50.6844 38.2557 52.9975 40.9909 53 44.125ZM40.6279 23.6358C42.6191 24.1031 44.0118 25.7478 44.0118 27.6319C44.0118 29.516 42.6191 31.1606 40.6279 31.628C39.8254 31.8163 39.3414 32.5654 39.5469 33.3011C39.7524 34.0367 40.5695 34.4804 41.3721 34.292C44.6906 33.5131 47.0118 30.772 47.0118 27.6319C47.0118 24.4917 44.6906 21.7506 41.3721 20.9717C40.5695 20.7834 39.7524 21.227 39.5469 21.9627C39.3414 22.6984 39.8254 23.4474 40.6279 23.6358ZM35 27.625C35 29.9032 32.9853 31.75 30.5 31.75C28.0147 31.75 26 29.9032 26 27.625C26 25.3468 28.0147 23.5 30.5 23.5C32.9853 23.5 35 25.3468 35 27.625Z" fill="white"/>
</mask>
<g mask="url(#mask0)">
<rect x="17" y="18" width="36" height="33" fill="black"/>
</g>
</svg>
