<svg width="70" height="70" viewBox="0 0 70 70" fill="none" xmlns="http://www.w3.org/2000/svg">
<circle cx="35" cy="35" r="35" fill="#E0E0E0"/>
<path fill-rule="evenodd" clip-rule="evenodd" d="M36.8913 17.4701L48.2247 23.4701C49.669 24.23 50.5826 25.79 50.5834 27.4984V41.7942C50.5826 43.5018 49.669 45.0618 48.2278 45.82L36.8949 51.8198C35.6977 52.4541 34.2883 52.4541 33.0915 51.82L21.7543 45.818C20.3114 45.0482 19.4056 43.4787 19.4168 41.7784L19.4168 27.4976C19.4176 25.79 20.3312 24.23 21.7724 23.4718L27.1644 20.6172C27.2411 20.5664 27.322 20.5236 27.4059 20.4893L33.1088 17.4701C34.3002 16.8433 35.7 16.8433 36.8913 17.4701ZM27.9239 23.5692L24.0083 25.6422L35.0001 31.4614L38.9157 29.3884L27.9239 23.5692ZM42.0834 27.7114L31.0916 21.8922L34.3728 20.155C34.7664 19.948 35.2324 19.9478 35.6292 20.156L45.9919 25.6422L42.0834 27.7114ZM42.7044 30.7367C42.7135 30.732 42.7225 30.7272 42.7315 30.7223L47.7501 28.0655L47.7501 41.7934C47.7498 42.3618 47.4453 42.8818 46.9639 43.1351L36.4168 48.7189V34.0655L42.7044 30.7367ZM22.2501 28.0655L33.5834 34.0655V48.7264L23.0253 43.1368C22.5483 42.8823 22.2463 42.3591 22.2501 41.7888L22.2501 28.0655Z" fill="black"/>
<mask id="mask0" mask-type="alpha" maskUnits="userSpaceOnUse" x="19" y="17" width="32" height="36">
<path fill-rule="evenodd" clip-rule="evenodd" d="M36.8913 17.4701L48.2247 23.4701C49.669 24.23 50.5826 25.79 50.5834 27.4984V41.7942C50.5826 43.5018 49.669 45.0618 48.2278 45.82L36.8949 51.8198C35.6977 52.4541 34.2883 52.4541 33.0915 51.82L21.7543 45.818C20.3114 45.0482 19.4056 43.4787 19.4168 41.7784L19.4168 27.4976C19.4176 25.79 20.3312 24.23 21.7724 23.4718L27.1644 20.6172C27.2411 20.5664 27.322 20.5236 27.4059 20.4893L33.1088 17.4701C34.3002 16.8433 35.7 16.8433 36.8913 17.4701ZM27.9239 23.5692L24.0083 25.6422L35.0001 31.4614L38.9157 29.3884L27.9239 23.5692ZM42.0834 27.7114L31.0916 21.8922L34.3728 20.155C34.7664 19.948 35.2324 19.9478 35.6292 20.156L45.9919 25.6422L42.0834 27.7114ZM42.7044 30.7367C42.7135 30.732 42.7225 30.7272 42.7315 30.7223L47.7501 28.0655L47.7501 41.7934C47.7498 42.3618 47.4453 42.8818 46.9639 43.1351L36.4168 48.7189V34.0655L42.7044 30.7367ZM22.2501 28.0655L33.5834 34.0655V48.7264L23.0253 43.1368C22.5483 42.8823 22.2463 42.3591 22.2501 41.7888L22.2501 28.0655Z" fill="white"/>
</mask>
<g mask="url(#mask0)">
<rect x="18" y="17" width="34" height="36" fill="#4F4F4F"/>
</g>
</svg>
