<svg width="70" height="70" viewBox="0 0 70 70" fill="none" xmlns="http://www.w3.org/2000/svg">
<circle cx="35" cy="35" r="35" fill="#E0E0E0"/>
<path fill-rule="evenodd" clip-rule="evenodd" d="M16.6667 35C16.6667 45.1252 24.8748 53.3333 35 53.3333C45.1252 53.3333 53.3333 45.1252 53.3333 35C53.3333 24.8748 45.1252 16.6667 35 16.6667C24.8748 16.6667 16.6667 24.8748 16.6667 35ZM50 35C50 43.2843 43.2843 50 35 50C26.7157 50 20 43.2843 20 35C20 26.7157 26.7157 20 35 20C43.2843 20 50 26.7157 50 35ZM35 46.6667C28.5567 46.6667 23.3333 41.4433 23.3333 35C23.3333 28.5567 28.5567 23.3333 35 23.3333C41.4433 23.3333 46.6667 28.5567 46.6667 35C46.6667 41.4433 41.4433 46.6667 35 46.6667ZM43.3333 35C43.3333 39.6024 39.6024 43.3333 35 43.3333C30.3976 43.3333 26.6667 39.6024 26.6667 35C26.6667 30.3976 30.3976 26.6667 35 26.6667C39.6024 26.6667 43.3333 30.3976 43.3333 35ZM35 40C32.2386 40 30 37.7614 30 35C30 32.2386 32.2386 30 35 30C37.7614 30 40 32.2386 40 35C40 37.7614 37.7614 40 35 40ZM36.6667 35C36.6667 35.9205 35.9205 36.6667 35 36.6667C34.0795 36.6667 33.3333 35.9205 33.3333 35C33.3333 34.0795 34.0795 33.3333 35 33.3333C35.9205 33.3333 36.6667 34.0795 36.6667 35Z" fill="black"/>
<mask id="mask0" mask-type="alpha" maskUnits="userSpaceOnUse" x="16" y="16" width="38" height="38">
<path fill-rule="evenodd" clip-rule="evenodd" d="M16.6667 35C16.6667 45.1252 24.8748 53.3333 35 53.3333C45.1252 53.3333 53.3333 45.1252 53.3333 35C53.3333 24.8748 45.1252 16.6667 35 16.6667C24.8748 16.6667 16.6667 24.8748 16.6667 35ZM50 35C50 43.2843 43.2843 50 35 50C26.7157 50 20 43.2843 20 35C20 26.7157 26.7157 20 35 20C43.2843 20 50 26.7157 50 35ZM35 46.6667C28.5567 46.6667 23.3333 41.4433 23.3333 35C23.3333 28.5567 28.5567 23.3333 35 23.3333C41.4433 23.3333 46.6667 28.5567 46.6667 35C46.6667 41.4433 41.4433 46.6667 35 46.6667ZM43.3333 35C43.3333 39.6024 39.6024 43.3333 35 43.3333C30.3976 43.3333 26.6667 39.6024 26.6667 35C26.6667 30.3976 30.3976 26.6667 35 26.6667C39.6024 26.6667 43.3333 30.3976 43.3333 35ZM35 40C32.2386 40 30 37.7614 30 35C30 32.2386 32.2386 30 35 30C37.7614 30 40 32.2386 40 35C40 37.7614 37.7614 40 35 40ZM36.6667 35C36.6667 35.9205 35.9205 36.6667 35 36.6667C34.0795 36.6667 33.3333 35.9205 33.3333 35C33.3333 34.0795 34.0795 33.3333 35 33.3333C35.9205 33.3333 36.6667 34.0795 36.6667 35Z" fill="white"/>
</mask>
<g mask="url(#mask0)">
<rect x="15" y="15" width="40" height="40" fill="#4F4F4F"/>
</g>
</svg>
