<svg width="134" height="28" viewBox="0 0 134 28" fill="none" xmlns="http://www.w3.org/2000/svg">
<path d="M15.696 27.612C13.824 27.612 12.888 26.808 12.888 25.2C12.888 24.672 12.96 24.072 13.104 23.4C13.272 22.704 13.5 21.816 13.788 20.736C14.124 19.608 14.376 18.648 14.544 17.856C14.712 17.064 14.796 16.356 14.796 15.732C14.796 14.1 14.076 13.284 12.636 13.284C12.252 13.284 11.856 13.332 11.448 13.428L8.568 27H3.384L8.28 4.104L13.608 3.384L11.844 11.7H12.132C13.068 11.7 13.932 11.376 14.724 10.728C15.516 10.08 16.128 9.276 16.56 8.316C17.016 7.332 17.244 6.372 17.244 5.436C17.244 4.332 16.908 3.432 16.236 2.736C15.588 2.016 14.604 1.656 13.284 1.656C11.34 1.656 9.636 2.004 8.172 2.7C6.708 3.396 5.568 4.404 4.752 5.724C3.96 7.044 3.564 8.604 3.564 10.404C3.564 11.292 3.648 11.916 3.816 12.276C3.984 12.612 4.068 12.804 4.068 12.852C2.772 12.852 1.8 12.588 1.152 12.06C0.528003 11.508 0.216003 10.608 0.216003 9.36C0.216003 7.824 0.840003 6.336 2.088 4.896C3.36 3.432 4.98 2.256 6.948 1.368C8.916 0.456001 10.884 0 12.852 0C14.652 0 16.164 0.263999 17.388 0.792C18.612 1.32 19.524 2.028 20.124 2.916C20.724 3.78 21.024 4.728 21.024 5.76C21.024 6.888 20.676 8.016 19.98 9.144C19.284 10.272 18.336 11.196 17.136 11.916C18.048 12.18 18.684 12.624 19.044 13.248C19.428 13.848 19.62 14.604 19.62 15.516C19.62 16.212 19.536 16.956 19.368 17.748C19.2 18.516 18.96 19.476 18.648 20.628C18.456 21.372 18.276 22.104 18.108 22.824C17.94 23.544 17.856 24.144 17.856 24.624C17.856 25.176 17.976 25.668 18.216 26.1C18.48 26.532 18.828 26.832 19.26 27C17.796 27.408 16.608 27.612 15.696 27.612Z" fill="#F2F2F2"/>
<path d="M25.9411 27.216C24.5731 27.216 23.4331 26.748 22.5211 25.812C21.6091 24.876 21.1531 23.412 21.1531 21.42C21.1531 19.644 21.5011 17.784 22.1971 15.84C22.9171 13.872 23.9731 12.216 25.3651 10.872C26.7811 9.504 28.4611 8.82 30.4051 8.82C31.3891 8.82 32.1211 8.988 32.6011 9.324C33.0811 9.66 33.3211 10.104 33.3211 10.656V10.908L33.7171 9H38.9011L36.3091 21.24C36.2131 21.6 36.1651 21.984 36.1651 22.392C36.1651 23.424 36.6571 23.94 37.6411 23.94C38.3131 23.94 38.8891 23.628 39.3691 23.004C39.8731 22.38 40.2691 21.564 40.5571 20.556H42.0691C41.1811 23.148 40.0771 24.912 38.7571 25.848C37.4611 26.76 36.1531 27.216 34.8331 27.216C33.8251 27.216 33.0091 26.94 32.3851 26.388C31.7851 25.812 31.4251 24.984 31.3051 23.904C30.6091 24.888 29.8291 25.692 28.9651 26.316C28.1251 26.916 27.1171 27.216 25.9411 27.216ZM28.2811 23.724C28.8811 23.724 29.4691 23.448 30.0451 22.896C30.6451 22.32 31.0531 21.54 31.2691 20.556L32.9971 12.42C32.9971 12.108 32.8771 11.808 32.6371 11.52C32.3971 11.208 32.0251 11.052 31.5211 11.052C30.5611 11.052 29.6971 11.616 28.9291 12.744C28.1611 13.848 27.5611 15.192 27.1291 16.776C26.6971 18.336 26.4811 19.716 26.4811 20.916C26.4811 22.116 26.6491 22.884 26.9851 23.22C27.3451 23.556 27.7771 23.724 28.2811 23.724Z" fill="#F2F2F2"/>
<path d="M44.8903 27.216C43.5223 27.216 42.3823 26.748 41.4703 25.812C40.5583 24.876 40.1023 23.412 40.1023 21.42C40.1023 19.644 40.4503 17.784 41.1463 15.84C41.8663 13.872 42.9223 12.216 44.3143 10.872C45.7303 9.504 47.4103 8.82 49.3543 8.82C50.3383 8.82 51.0703 8.988 51.5503 9.324C52.0303 9.66 52.2703 10.104 52.2703 10.656V10.8L54.0343 2.52L59.3623 1.8L55.2223 21.24C55.1263 21.6 55.0783 21.984 55.0783 22.392C55.0783 22.872 55.1863 23.22 55.4023 23.436C55.6423 23.628 56.0263 23.724 56.5543 23.724C57.2263 23.724 57.8023 23.436 58.2823 22.86C58.7863 22.284 59.1823 21.516 59.4703 20.556H60.9823C59.5183 24.852 57.1063 27 53.7463 27C52.7623 27 51.9583 26.736 51.3343 26.208C50.7343 25.68 50.3623 24.912 50.2183 23.904C49.5943 24.864 48.8383 25.656 47.9503 26.28C47.0863 26.904 46.0663 27.216 44.8903 27.216ZM47.2303 23.724C47.8063 23.724 48.3823 23.46 48.9583 22.932C49.5583 22.404 49.9663 21.672 50.1823 20.736V20.556L51.9463 12.312C51.7303 11.472 51.2383 11.052 50.4703 11.052C49.5103 11.052 48.6463 11.616 47.8783 12.744C47.1103 13.848 46.5103 15.192 46.0783 16.776C45.6463 18.336 45.4303 19.716 45.4303 20.916C45.4303 22.116 45.5983 22.884 45.9343 23.22C46.2943 23.556 46.7263 23.724 47.2303 23.724Z" fill="#F2F2F2"/>
<path d="M65.4964 7.056C64.7044 7.056 64.0324 6.78 63.4804 6.228C62.9284 5.676 62.6524 5.004 62.6524 4.212C62.6524 3.42 62.9284 2.748 63.4804 2.196C64.0324 1.62 64.7044 1.332 65.4964 1.332C66.2884 1.332 66.9604 1.62 67.5124 2.196C68.0884 2.748 68.3764 3.42 68.3764 4.212C68.3764 5.004 68.0884 5.676 67.5124 6.228C66.9604 6.78 66.2884 7.056 65.4964 7.056ZM63.0484 27.216C61.8964 27.216 60.9604 26.856 60.2404 26.136C59.5444 25.416 59.1964 24.336 59.1964 22.896C59.1964 22.296 59.2924 21.516 59.4844 20.556L61.9324 9H67.1164L64.5244 21.24C64.4284 21.6 64.3804 21.984 64.3804 22.392C64.3804 22.872 64.4884 23.22 64.7044 23.436C64.9444 23.628 65.3284 23.724 65.8564 23.724C66.5524 23.724 67.2004 23.436 67.8004 22.86C68.4004 22.26 68.8324 21.492 69.0964 20.556H70.6084C69.7204 23.148 68.5804 24.912 67.1884 25.848C65.7964 26.76 64.4164 27.216 63.0484 27.216Z" fill="#F2F2F2"/>
<path d="M73.402 27.216C72.034 27.216 70.894 26.748 69.982 25.812C69.07 24.876 68.614 23.412 68.614 21.42C68.614 19.644 68.962 17.784 69.658 15.84C70.378 13.872 71.434 12.216 72.826 10.872C74.242 9.504 75.922 8.82 77.866 8.82C78.85 8.82 79.582 8.988 80.062 9.324C80.542 9.66 80.782 10.104 80.782 10.656V10.908L81.178 9H86.362L83.77 21.24C83.674 21.6 83.626 21.984 83.626 22.392C83.626 23.424 84.118 23.94 85.102 23.94C85.774 23.94 86.35 23.628 86.83 23.004C87.334 22.38 87.73 21.564 88.018 20.556H89.53C88.642 23.148 87.538 24.912 86.218 25.848C84.922 26.76 83.614 27.216 82.294 27.216C81.286 27.216 80.47 26.94 79.846 26.388C79.246 25.812 78.886 24.984 78.766 23.904C78.07 24.888 77.29 25.692 76.426 26.316C75.586 26.916 74.578 27.216 73.402 27.216ZM75.742 23.724C76.342 23.724 76.93 23.448 77.506 22.896C78.106 22.32 78.514 21.54 78.73 20.556L80.458 12.42C80.458 12.108 80.338 11.808 80.098 11.52C79.858 11.208 79.486 11.052 78.982 11.052C78.022 11.052 77.158 11.616 76.39 12.744C75.622 13.848 75.022 15.192 74.59 16.776C74.158 18.336 73.942 19.716 73.942 20.916C73.942 22.116 74.11 22.884 74.446 23.22C74.806 23.556 75.238 23.724 75.742 23.724Z" fill="#F2F2F2"/>
<path d="M101.027 27.216C99.5633 27.216 98.4833 26.832 97.7873 26.064C97.1153 25.272 96.7793 24.3 96.7793 23.148C96.7793 22.644 96.8392 22.08 96.9593 21.456C97.0793 20.808 97.1992 20.184 97.3193 19.584C97.4632 18.984 97.5592 18.6 97.6072 18.432C97.7992 17.592 97.9792 16.764 98.1472 15.948C98.3152 15.132 98.3993 14.472 98.3993 13.968C98.3993 12.744 97.9672 12.132 97.1032 12.132C96.4792 12.132 95.9273 12.444 95.4473 13.068C94.9672 13.668 94.5833 14.46 94.2952 15.444L91.8473 27H86.6632L90.4792 9H95.6633L95.2673 10.872C96.4672 9.528 97.8712 8.856 99.4792 8.856C100.703 8.856 101.675 9.192 102.395 9.864C103.115 10.536 103.475 11.556 103.475 12.924C103.475 13.62 103.391 14.4 103.223 15.264C103.055 16.104 102.815 17.136 102.503 18.36C102.311 19.104 102.131 19.836 101.963 20.556C101.819 21.252 101.747 21.804 101.747 22.212C101.747 22.692 101.855 23.064 102.071 23.328C102.287 23.592 102.659 23.724 103.187 23.724C103.907 23.724 104.483 23.472 104.915 22.968C105.347 22.44 105.779 21.636 106.211 20.556H107.723C106.835 23.196 105.803 24.972 104.627 25.884C103.475 26.772 102.275 27.216 101.027 27.216Z" fill="#F2F2F2"/>
<path d="M111.355 27.216C109.579 27.216 108.199 26.76 107.215 25.848C106.231 24.912 105.739 23.46 105.739 21.492C105.739 19.836 106.063 18.012 106.711 16.02C107.383 14.028 108.439 12.312 109.879 10.872C111.343 9.408 113.191 8.676 115.423 8.676C116.863 8.676 117.883 8.988 118.483 9.612C119.107 10.236 119.419 11.028 119.419 11.988C119.419 12.828 119.239 13.476 118.879 13.932C118.519 14.388 118.063 14.616 117.511 14.616C117.103 14.616 116.683 14.472 116.251 14.184C116.539 13.392 116.683 12.684 116.683 12.06C116.683 11.604 116.599 11.244 116.431 10.98C116.263 10.716 116.011 10.584 115.675 10.584C114.955 10.584 114.235 11.172 113.515 12.348C112.795 13.524 112.207 14.952 111.751 16.632C111.295 18.312 111.067 19.824 111.067 21.168C111.067 22.344 111.271 23.148 111.679 23.58C112.087 23.988 112.747 24.192 113.659 24.192C114.955 24.192 116.059 23.892 116.971 23.292C117.907 22.692 118.927 21.78 120.031 20.556H121.255C118.591 24.996 115.291 27.216 111.355 27.216Z" fill="#F2F2F2"/>
<path d="M125.099 27.216C123.347 27.216 121.979 26.76 120.995 25.848C120.011 24.912 119.519 23.46 119.519 21.492C119.519 19.836 119.843 18.012 120.491 16.02C121.139 14.028 122.195 12.312 123.659 10.872C125.123 9.408 126.983 8.676 129.239 8.676C131.879 8.676 133.199 9.828 133.199 12.132C133.199 13.476 132.815 14.712 132.047 15.84C131.279 16.968 130.259 17.88 128.987 18.576C127.715 19.248 126.359 19.632 124.919 19.728C124.871 20.256 124.847 20.616 124.847 20.808C124.847 22.8 125.591 23.796 127.079 23.796C127.751 23.796 128.471 23.616 129.239 23.256C130.007 22.896 130.703 22.44 131.327 21.888C130.679 25.44 128.603 27.216 125.099 27.216ZM125.171 18C126.083 17.976 126.935 17.676 127.727 17.1C128.543 16.524 129.191 15.792 129.671 14.904C130.175 13.992 130.427 13.044 130.427 12.06C130.427 11.076 130.127 10.584 129.527 10.584C128.687 10.584 127.847 11.352 127.007 12.888C126.191 14.4 125.579 16.104 125.171 18Z" fill="#F2F2F2"/>
</svg>
